<mxfile host="app.diagrams.net" agent="Mozilla/5.0 (Windows NT 10.0; Win64; x64) AppleWebKit/537.36 (KHTML, like Gecko) Chrome/131.0.0.0 Safari/537.36 OPR/116.0.0.0" version="26.0.11">
  <diagram name="Page-1" id="6tnyRN6f4Va_y3SqDsLB">
<<<<<<< Updated upstream
    <mxGraphModel dx="2244" dy="831" grid="0" gridSize="10" guides="1" tooltips="1" connect="1" arrows="1" fold="1" page="0" pageScale="1" pageWidth="827" pageHeight="1169" background="none" math="0" shadow="0">
=======
    <mxGraphModel dx="1792" dy="831" grid="0" gridSize="10" guides="1" tooltips="1" connect="1" arrows="1" fold="1" page="0" pageScale="1" pageWidth="827" pageHeight="1169" background="none" math="0" shadow="0">
>>>>>>> Stashed changes
      <root>
        <mxCell id="0" />
        <mxCell id="1" parent="0" />
        <mxCell id="PUA4zZ7eV-MUCZfb3W8y-8" style="edgeStyle=orthogonalEdgeStyle;rounded=0;orthogonalLoop=1;jettySize=auto;html=1;exitX=0.5;exitY=1;exitDx=0;exitDy=0;entryX=0.5;entryY=0;entryDx=0;entryDy=0;fontStyle=0;fontSize=15;strokeWidth=2;sketch=1;curveFitting=1;jiggle=2;" parent="1" source="PUA4zZ7eV-MUCZfb3W8y-1" target="PUA4zZ7eV-MUCZfb3W8y-2" edge="1">
          <mxGeometry relative="1" as="geometry" />
        </mxCell>
        <mxCell id="PUA4zZ7eV-MUCZfb3W8y-9" style="edgeStyle=orthogonalEdgeStyle;rounded=0;orthogonalLoop=1;jettySize=auto;html=1;exitX=0.5;exitY=1;exitDx=0;exitDy=0;entryX=0.5;entryY=0;entryDx=0;entryDy=0;fontStyle=0;fontSize=15;strokeWidth=2;" parent="1" source="PUA4zZ7eV-MUCZfb3W8y-1" target="PUA4zZ7eV-MUCZfb3W8y-4" edge="1">
          <mxGeometry relative="1" as="geometry" />
        </mxCell>
        <mxCell id="PUA4zZ7eV-MUCZfb3W8y-10" style="edgeStyle=orthogonalEdgeStyle;rounded=0;orthogonalLoop=1;jettySize=auto;html=1;exitX=0.5;exitY=1;exitDx=0;exitDy=0;fontStyle=0;fontSize=15;strokeWidth=2;" parent="1" source="PUA4zZ7eV-MUCZfb3W8y-1" target="PUA4zZ7eV-MUCZfb3W8y-5" edge="1">
          <mxGeometry relative="1" as="geometry" />
        </mxCell>
        <mxCell id="PUA4zZ7eV-MUCZfb3W8y-11" style="edgeStyle=orthogonalEdgeStyle;rounded=0;orthogonalLoop=1;jettySize=auto;html=1;exitX=0.5;exitY=1;exitDx=0;exitDy=0;entryX=0.5;entryY=0;entryDx=0;entryDy=0;fontStyle=0;fontSize=15;strokeWidth=2;" parent="1" source="PUA4zZ7eV-MUCZfb3W8y-1" target="PUA4zZ7eV-MUCZfb3W8y-6" edge="1">
          <mxGeometry relative="1" as="geometry" />
        </mxCell>
        <mxCell id="PUA4zZ7eV-MUCZfb3W8y-12" style="edgeStyle=orthogonalEdgeStyle;rounded=0;orthogonalLoop=1;jettySize=auto;html=1;exitX=0.5;exitY=1;exitDx=0;exitDy=0;entryX=0.5;entryY=0;entryDx=0;entryDy=0;fontStyle=0;fontSize=15;strokeWidth=2;" parent="1" source="PUA4zZ7eV-MUCZfb3W8y-1" target="PUA4zZ7eV-MUCZfb3W8y-7" edge="1">
          <mxGeometry relative="1" as="geometry" />
        </mxCell>
        <mxCell id="PUA4zZ7eV-MUCZfb3W8y-46" style="edgeStyle=orthogonalEdgeStyle;rounded=0;orthogonalLoop=1;jettySize=auto;html=1;exitX=0.5;exitY=1;exitDx=0;exitDy=0;entryX=0.5;entryY=0;entryDx=0;entryDy=0;fontStyle=0;fontSize=15;strokeWidth=2;sketch=1;curveFitting=1;jiggle=2;" parent="1" source="PUA4zZ7eV-MUCZfb3W8y-1" target="PUA4zZ7eV-MUCZfb3W8y-42" edge="1">
          <mxGeometry relative="1" as="geometry" />
        </mxCell>
        <mxCell id="PUA4zZ7eV-MUCZfb3W8y-1" value="Shrimp Game" style="rounded=0;whiteSpace=wrap;html=1;sketch=1;curveFitting=1;jiggle=2;fillColor=#E6E6E6;fontStyle=1;fontSize=22;" parent="1" vertex="1">
          <mxGeometry x="385" y="369" width="205" height="86" as="geometry" />
        </mxCell>
        <mxCell id="PUA4zZ7eV-MUCZfb3W8y-22" style="edgeStyle=orthogonalEdgeStyle;rounded=0;orthogonalLoop=1;jettySize=auto;html=1;exitX=0.5;exitY=1;exitDx=0;exitDy=0;entryX=0;entryY=0.5;entryDx=0;entryDy=0;fontStyle=0;fontSize=15;strokeWidth=2;" parent="1" source="PUA4zZ7eV-MUCZfb3W8y-2" target="PUA4zZ7eV-MUCZfb3W8y-21" edge="1">
          <mxGeometry relative="1" as="geometry" />
        </mxCell>
        <mxCell id="PUA4zZ7eV-MUCZfb3W8y-88" style="edgeStyle=orthogonalEdgeStyle;rounded=0;orthogonalLoop=1;jettySize=auto;html=1;exitX=0.5;exitY=1;exitDx=0;exitDy=0;entryX=0;entryY=0.5;entryDx=0;entryDy=0;fontStyle=0;fontSize=15;strokeWidth=2;" parent="1" source="PUA4zZ7eV-MUCZfb3W8y-2" target="PUA4zZ7eV-MUCZfb3W8y-24" edge="1">
          <mxGeometry relative="1" as="geometry" />
        </mxCell>
        <mxCell id="PUA4zZ7eV-MUCZfb3W8y-89" style="edgeStyle=orthogonalEdgeStyle;rounded=0;orthogonalLoop=1;jettySize=auto;html=1;exitX=0.5;exitY=1;exitDx=0;exitDy=0;entryX=0;entryY=0.5;entryDx=0;entryDy=0;fontStyle=0;fontSize=15;strokeWidth=2;" parent="1" source="PUA4zZ7eV-MUCZfb3W8y-2" target="PUA4zZ7eV-MUCZfb3W8y-25" edge="1">
          <mxGeometry relative="1" as="geometry" />
        </mxCell>
        <mxCell id="PUA4zZ7eV-MUCZfb3W8y-92" style="edgeStyle=orthogonalEdgeStyle;rounded=0;orthogonalLoop=1;jettySize=auto;html=1;exitX=0.5;exitY=1;exitDx=0;exitDy=0;entryX=0;entryY=0.5;entryDx=0;entryDy=0;fontStyle=0;fontSize=15;strokeWidth=2;" parent="1" source="PUA4zZ7eV-MUCZfb3W8y-2" target="PUA4zZ7eV-MUCZfb3W8y-26" edge="1">
          <mxGeometry relative="1" as="geometry" />
        </mxCell>
        <mxCell id="PUA4zZ7eV-MUCZfb3W8y-93" style="edgeStyle=orthogonalEdgeStyle;rounded=0;orthogonalLoop=1;jettySize=auto;html=1;exitX=0.5;exitY=1;exitDx=0;exitDy=0;entryX=0;entryY=0.5;entryDx=0;entryDy=0;fontStyle=0;fontSize=15;strokeWidth=2;" parent="1" source="PUA4zZ7eV-MUCZfb3W8y-2" target="PUA4zZ7eV-MUCZfb3W8y-27" edge="1">
          <mxGeometry relative="1" as="geometry" />
        </mxCell>
        <mxCell id="PUA4zZ7eV-MUCZfb3W8y-94" style="edgeStyle=orthogonalEdgeStyle;rounded=0;orthogonalLoop=1;jettySize=auto;html=1;exitX=0.5;exitY=1;exitDx=0;exitDy=0;entryX=0;entryY=0.5;entryDx=0;entryDy=0;fontStyle=0;fontSize=15;strokeWidth=2;" parent="1" source="PUA4zZ7eV-MUCZfb3W8y-2" target="PUA4zZ7eV-MUCZfb3W8y-28" edge="1">
          <mxGeometry relative="1" as="geometry" />
        </mxCell>
        <mxCell id="PUA4zZ7eV-MUCZfb3W8y-95" style="edgeStyle=orthogonalEdgeStyle;rounded=0;orthogonalLoop=1;jettySize=auto;html=1;exitX=0.5;exitY=1;exitDx=0;exitDy=0;entryX=0;entryY=0.5;entryDx=0;entryDy=0;fontStyle=0;fontSize=15;strokeWidth=2;" parent="1" source="PUA4zZ7eV-MUCZfb3W8y-2" target="PUA4zZ7eV-MUCZfb3W8y-33" edge="1">
          <mxGeometry relative="1" as="geometry" />
        </mxCell>
        <mxCell id="PUA4zZ7eV-MUCZfb3W8y-96" style="edgeStyle=orthogonalEdgeStyle;rounded=0;orthogonalLoop=1;jettySize=auto;html=1;exitX=0.5;exitY=1;exitDx=0;exitDy=0;entryX=0;entryY=0.5;entryDx=0;entryDy=0;fontStyle=0;fontSize=15;strokeWidth=2;" parent="1" source="PUA4zZ7eV-MUCZfb3W8y-2" target="PUA4zZ7eV-MUCZfb3W8y-35" edge="1">
          <mxGeometry relative="1" as="geometry" />
        </mxCell>
        <mxCell id="PUA4zZ7eV-MUCZfb3W8y-97" style="edgeStyle=orthogonalEdgeStyle;rounded=0;orthogonalLoop=1;jettySize=auto;html=1;exitX=0.5;exitY=1;exitDx=0;exitDy=0;entryX=0;entryY=0.5;entryDx=0;entryDy=0;fontStyle=0;fontSize=15;strokeWidth=2;" parent="1" source="PUA4zZ7eV-MUCZfb3W8y-2" target="PUA4zZ7eV-MUCZfb3W8y-36" edge="1">
          <mxGeometry relative="1" as="geometry" />
        </mxCell>
        <mxCell id="PUA4zZ7eV-MUCZfb3W8y-98" style="edgeStyle=orthogonalEdgeStyle;rounded=0;orthogonalLoop=1;jettySize=auto;html=1;exitX=0.5;exitY=1;exitDx=0;exitDy=0;entryX=0;entryY=0.5;entryDx=0;entryDy=0;fontStyle=0;fontSize=15;strokeWidth=2;" parent="1" source="PUA4zZ7eV-MUCZfb3W8y-2" target="PUA4zZ7eV-MUCZfb3W8y-78" edge="1">
          <mxGeometry relative="1" as="geometry" />
        </mxCell>
        <mxCell id="PUA4zZ7eV-MUCZfb3W8y-101" style="edgeStyle=orthogonalEdgeStyle;rounded=0;orthogonalLoop=1;jettySize=auto;html=1;exitX=0.5;exitY=1;exitDx=0;exitDy=0;entryX=0;entryY=0.5;entryDx=0;entryDy=0;fontStyle=0;fontSize=15;strokeWidth=2;" parent="1" source="PUA4zZ7eV-MUCZfb3W8y-2" target="PUA4zZ7eV-MUCZfb3W8y-100" edge="1">
          <mxGeometry relative="1" as="geometry" />
        </mxCell>
<<<<<<< Updated upstream
        <mxCell id="PUA4zZ7eV-MUCZfb3W8y-2" value="&lt;div&gt;1&lt;/div&gt;Shrimp" style="rounded=0;whiteSpace=wrap;html=1;sketch=1;curveFitting=1;jiggle=2;fillColor=#E6E6E6;fontStyle=0;fontSize=15;" parent="1" vertex="1">
=======
        <mxCell id="PUA4zZ7eV-MUCZfb3W8y-2" value="&lt;div&gt;1.1&lt;/div&gt;Shrimp" style="rounded=0;whiteSpace=wrap;html=1;sketch=1;curveFitting=1;jiggle=2;fillColor=#E6E6E6;fontStyle=0;fontSize=15;" parent="1" vertex="1">
>>>>>>> Stashed changes
          <mxGeometry x="-170" y="540" width="120" height="60" as="geometry" />
        </mxCell>
        <mxCell id="PUA4zZ7eV-MUCZfb3W8y-20" style="edgeStyle=orthogonalEdgeStyle;rounded=0;orthogonalLoop=1;jettySize=auto;html=1;exitX=0.5;exitY=1;exitDx=0;exitDy=0;entryX=0;entryY=0.5;entryDx=0;entryDy=0;fontStyle=0;fontSize=15;strokeWidth=2;" parent="1" source="PUA4zZ7eV-MUCZfb3W8y-4" target="PUA4zZ7eV-MUCZfb3W8y-19" edge="1">
          <mxGeometry relative="1" as="geometry" />
        </mxCell>
        <mxCell id="PUA4zZ7eV-MUCZfb3W8y-102" style="edgeStyle=orthogonalEdgeStyle;rounded=0;orthogonalLoop=1;jettySize=auto;html=1;exitX=0.5;exitY=1;exitDx=0;exitDy=0;entryX=0;entryY=0.5;entryDx=0;entryDy=0;fontStyle=0;fontSize=15;strokeWidth=2;" parent="1" source="PUA4zZ7eV-MUCZfb3W8y-4" target="PUA4zZ7eV-MUCZfb3W8y-32" edge="1">
          <mxGeometry relative="1" as="geometry" />
        </mxCell>
        <mxCell id="PUA4zZ7eV-MUCZfb3W8y-103" style="edgeStyle=orthogonalEdgeStyle;rounded=0;orthogonalLoop=1;jettySize=auto;html=1;exitX=0.5;exitY=1;exitDx=0;exitDy=0;entryX=0;entryY=0.5;entryDx=0;entryDy=0;fontStyle=0;fontSize=15;strokeWidth=2;" parent="1" source="PUA4zZ7eV-MUCZfb3W8y-4" target="PUA4zZ7eV-MUCZfb3W8y-47" edge="1">
          <mxGeometry relative="1" as="geometry" />
        </mxCell>
        <mxCell id="PUA4zZ7eV-MUCZfb3W8y-104" style="edgeStyle=orthogonalEdgeStyle;rounded=0;orthogonalLoop=1;jettySize=auto;html=1;exitX=0.5;exitY=1;exitDx=0;exitDy=0;entryX=0;entryY=0.5;entryDx=0;entryDy=0;fontStyle=0;fontSize=15;strokeWidth=2;" parent="1" source="PUA4zZ7eV-MUCZfb3W8y-4" target="PUA4zZ7eV-MUCZfb3W8y-48" edge="1">
          <mxGeometry relative="1" as="geometry" />
        </mxCell>
        <mxCell id="PUA4zZ7eV-MUCZfb3W8y-105" style="edgeStyle=orthogonalEdgeStyle;rounded=0;orthogonalLoop=1;jettySize=auto;html=1;exitX=0.5;exitY=1;exitDx=0;exitDy=0;entryX=0;entryY=0.5;entryDx=0;entryDy=0;fontStyle=0;fontSize=15;strokeWidth=2;" parent="1" source="PUA4zZ7eV-MUCZfb3W8y-4" target="PUA4zZ7eV-MUCZfb3W8y-49" edge="1">
          <mxGeometry relative="1" as="geometry" />
        </mxCell>
        <mxCell id="PUA4zZ7eV-MUCZfb3W8y-106" style="edgeStyle=orthogonalEdgeStyle;rounded=0;orthogonalLoop=1;jettySize=auto;html=1;exitX=0.5;exitY=1;exitDx=0;exitDy=0;entryX=0;entryY=0.5;entryDx=0;entryDy=0;shadow=0;flowAnimation=0;fontStyle=0;fontSize=15;strokeWidth=2;" parent="1" source="PUA4zZ7eV-MUCZfb3W8y-4" target="PUA4zZ7eV-MUCZfb3W8y-30" edge="1">
          <mxGeometry relative="1" as="geometry" />
        </mxCell>
<<<<<<< Updated upstream
        <mxCell id="PUA4zZ7eV-MUCZfb3W8y-4" value="&lt;div&gt;2&lt;/div&gt;Tanks" style="rounded=0;whiteSpace=wrap;html=1;sketch=1;curveFitting=1;jiggle=2;fillColor=#E6E6E6;fontStyle=0;fontSize=15;" parent="1" vertex="1">
=======
        <mxCell id="PUA4zZ7eV-MUCZfb3W8y-4" value="&lt;div&gt;1.2&lt;/div&gt;Tanks" style="rounded=0;whiteSpace=wrap;html=1;sketch=1;curveFitting=1;jiggle=2;fillColor=#E6E6E6;fontStyle=0;fontSize=15;" parent="1" vertex="1">
>>>>>>> Stashed changes
          <mxGeometry x="70" y="540" width="120" height="60" as="geometry" />
        </mxCell>
        <mxCell id="PUA4zZ7eV-MUCZfb3W8y-18" style="edgeStyle=orthogonalEdgeStyle;rounded=0;orthogonalLoop=1;jettySize=auto;html=1;exitX=0.5;exitY=1;exitDx=0;exitDy=0;entryX=0;entryY=0.5;entryDx=0;entryDy=0;fontStyle=0;fontSize=15;strokeWidth=2;" parent="1" source="PUA4zZ7eV-MUCZfb3W8y-5" target="PUA4zZ7eV-MUCZfb3W8y-17" edge="1">
          <mxGeometry relative="1" as="geometry" />
        </mxCell>
        <mxCell id="PUA4zZ7eV-MUCZfb3W8y-107" style="edgeStyle=orthogonalEdgeStyle;rounded=0;orthogonalLoop=1;jettySize=auto;html=1;exitX=0.5;exitY=1;exitDx=0;exitDy=0;entryX=0;entryY=0.5;entryDx=0;entryDy=0;fontStyle=0;fontSize=15;strokeWidth=2;" parent="1" source="PUA4zZ7eV-MUCZfb3W8y-5" target="PUA4zZ7eV-MUCZfb3W8y-56" edge="1">
          <mxGeometry relative="1" as="geometry" />
        </mxCell>
        <mxCell id="PUA4zZ7eV-MUCZfb3W8y-108" style="edgeStyle=orthogonalEdgeStyle;rounded=0;orthogonalLoop=1;jettySize=auto;html=1;exitX=0.5;exitY=1;exitDx=0;exitDy=0;entryX=0;entryY=0.5;entryDx=0;entryDy=0;fontStyle=0;fontSize=15;strokeWidth=2;" parent="1" source="PUA4zZ7eV-MUCZfb3W8y-5" target="PUA4zZ7eV-MUCZfb3W8y-57" edge="1">
          <mxGeometry relative="1" as="geometry" />
        </mxCell>
        <mxCell id="PUA4zZ7eV-MUCZfb3W8y-109" style="edgeStyle=orthogonalEdgeStyle;rounded=0;orthogonalLoop=1;jettySize=auto;html=1;exitX=0.5;exitY=1;exitDx=0;exitDy=0;entryX=0;entryY=0.5;entryDx=0;entryDy=0;fontStyle=0;fontSize=15;strokeWidth=2;" parent="1" source="PUA4zZ7eV-MUCZfb3W8y-5" target="PUA4zZ7eV-MUCZfb3W8y-58" edge="1">
          <mxGeometry relative="1" as="geometry" />
        </mxCell>
        <mxCell id="PUA4zZ7eV-MUCZfb3W8y-110" style="edgeStyle=orthogonalEdgeStyle;rounded=0;orthogonalLoop=1;jettySize=auto;html=1;exitX=0.5;exitY=1;exitDx=0;exitDy=0;entryX=0;entryY=0.5;entryDx=0;entryDy=0;fontStyle=0;fontSize=15;strokeWidth=2;" parent="1" source="PUA4zZ7eV-MUCZfb3W8y-5" target="PUA4zZ7eV-MUCZfb3W8y-79" edge="1">
          <mxGeometry relative="1" as="geometry" />
        </mxCell>
        <mxCell id="PUA4zZ7eV-MUCZfb3W8y-111" style="edgeStyle=orthogonalEdgeStyle;rounded=0;orthogonalLoop=1;jettySize=auto;html=1;exitX=0.5;exitY=1;exitDx=0;exitDy=0;entryX=0;entryY=0.5;entryDx=0;entryDy=0;fontStyle=0;fontSize=15;strokeWidth=2;" parent="1" source="PUA4zZ7eV-MUCZfb3W8y-5" target="PUA4zZ7eV-MUCZfb3W8y-77" edge="1">
          <mxGeometry relative="1" as="geometry" />
        </mxCell>
<<<<<<< Updated upstream
        <mxCell id="PUA4zZ7eV-MUCZfb3W8y-5" value="&lt;div&gt;3&lt;/div&gt;Economy" style="rounded=0;whiteSpace=wrap;html=1;sketch=1;curveFitting=1;jiggle=2;fillColor=#E6E6E6;fontStyle=0;fontSize=15;" parent="1" vertex="1">
=======
        <mxCell id="PUA4zZ7eV-MUCZfb3W8y-5" value="&lt;div&gt;1.3&lt;/div&gt;Economy" style="rounded=0;whiteSpace=wrap;html=1;sketch=1;curveFitting=1;jiggle=2;fillColor=#E6E6E6;fontStyle=0;fontSize=15;" parent="1" vertex="1">
>>>>>>> Stashed changes
          <mxGeometry x="314" y="540" width="120" height="60" as="geometry" />
        </mxCell>
        <mxCell id="PUA4zZ7eV-MUCZfb3W8y-16" style="edgeStyle=orthogonalEdgeStyle;rounded=0;orthogonalLoop=1;jettySize=auto;html=1;exitX=0.5;exitY=1;exitDx=0;exitDy=0;entryX=0;entryY=0.5;entryDx=0;entryDy=0;fontStyle=0;fontSize=15;strokeWidth=2;" parent="1" source="PUA4zZ7eV-MUCZfb3W8y-6" target="PUA4zZ7eV-MUCZfb3W8y-15" edge="1">
          <mxGeometry relative="1" as="geometry" />
        </mxCell>
        <mxCell id="PUA4zZ7eV-MUCZfb3W8y-112" style="edgeStyle=orthogonalEdgeStyle;rounded=0;orthogonalLoop=1;jettySize=auto;html=1;exitX=0.5;exitY=1;exitDx=0;exitDy=0;entryX=0;entryY=0.5;entryDx=0;entryDy=0;fontStyle=0;fontSize=15;strokeWidth=2;" parent="1" source="PUA4zZ7eV-MUCZfb3W8y-6" target="PUA4zZ7eV-MUCZfb3W8y-37" edge="1">
          <mxGeometry relative="1" as="geometry" />
        </mxCell>
        <mxCell id="PUA4zZ7eV-MUCZfb3W8y-113" style="edgeStyle=orthogonalEdgeStyle;rounded=0;orthogonalLoop=1;jettySize=auto;html=1;exitX=0.5;exitY=1;exitDx=0;exitDy=0;entryX=0;entryY=0.5;entryDx=0;entryDy=0;fontStyle=0;fontSize=15;strokeWidth=2;" parent="1" source="PUA4zZ7eV-MUCZfb3W8y-6" target="PUA4zZ7eV-MUCZfb3W8y-38" edge="1">
          <mxGeometry relative="1" as="geometry" />
        </mxCell>
        <mxCell id="PUA4zZ7eV-MUCZfb3W8y-114" style="edgeStyle=orthogonalEdgeStyle;rounded=0;orthogonalLoop=1;jettySize=auto;html=1;exitX=0.5;exitY=1;exitDx=0;exitDy=0;entryX=0;entryY=0.5;entryDx=0;entryDy=0;fontStyle=0;fontSize=15;strokeWidth=2;" parent="1" source="PUA4zZ7eV-MUCZfb3W8y-6" target="PUA4zZ7eV-MUCZfb3W8y-39" edge="1">
          <mxGeometry relative="1" as="geometry" />
        </mxCell>
        <mxCell id="PUA4zZ7eV-MUCZfb3W8y-115" style="edgeStyle=orthogonalEdgeStyle;rounded=0;orthogonalLoop=1;jettySize=auto;html=1;exitX=0.5;exitY=1;exitDx=0;exitDy=0;entryX=0;entryY=0.5;entryDx=0;entryDy=0;fontStyle=0;fontSize=15;strokeWidth=2;" parent="1" source="PUA4zZ7eV-MUCZfb3W8y-6" target="PUA4zZ7eV-MUCZfb3W8y-40" edge="1">
          <mxGeometry relative="1" as="geometry" />
        </mxCell>
        <mxCell id="PUA4zZ7eV-MUCZfb3W8y-116" style="edgeStyle=orthogonalEdgeStyle;rounded=0;orthogonalLoop=1;jettySize=auto;html=1;exitX=0.5;exitY=1;exitDx=0;exitDy=0;entryX=0;entryY=0.5;entryDx=0;entryDy=0;fontStyle=0;fontSize=15;strokeWidth=2;" parent="1" source="PUA4zZ7eV-MUCZfb3W8y-6" target="PUA4zZ7eV-MUCZfb3W8y-72" edge="1">
          <mxGeometry relative="1" as="geometry" />
        </mxCell>
        <mxCell id="PUA4zZ7eV-MUCZfb3W8y-117" style="edgeStyle=orthogonalEdgeStyle;rounded=0;orthogonalLoop=1;jettySize=auto;html=1;exitX=0.5;exitY=1;exitDx=0;exitDy=0;entryX=0;entryY=0.5;entryDx=0;entryDy=0;fontStyle=0;fontSize=15;strokeWidth=2;" parent="1" source="PUA4zZ7eV-MUCZfb3W8y-6" target="PUA4zZ7eV-MUCZfb3W8y-55" edge="1">
          <mxGeometry relative="1" as="geometry" />
        </mxCell>
        <mxCell id="PUA4zZ7eV-MUCZfb3W8y-118" style="edgeStyle=orthogonalEdgeStyle;rounded=0;orthogonalLoop=1;jettySize=auto;html=1;exitX=0.5;exitY=1;exitDx=0;exitDy=0;entryX=0;entryY=0.5;entryDx=0;entryDy=0;fontStyle=0;fontSize=15;strokeWidth=2;" parent="1" source="PUA4zZ7eV-MUCZfb3W8y-6" target="PUA4zZ7eV-MUCZfb3W8y-54" edge="1">
          <mxGeometry relative="1" as="geometry" />
        </mxCell>
<<<<<<< Updated upstream
        <mxCell id="PUA4zZ7eV-MUCZfb3W8y-6" value="&lt;div&gt;4&lt;/div&gt;Shop &amp;amp; Player" style="rounded=0;whiteSpace=wrap;html=1;sketch=1;curveFitting=1;jiggle=2;fillColor=#E6E6E6;fontStyle=0;fontSize=15;" parent="1" vertex="1">
=======
        <mxCell id="PUA4zZ7eV-MUCZfb3W8y-6" value="1.4&lt;div&gt;Shop &amp;amp; Player&lt;/div&gt;" style="rounded=0;whiteSpace=wrap;html=1;sketch=1;curveFitting=1;jiggle=2;fillColor=#E6E6E6;fontStyle=0;fontSize=15;" parent="1" vertex="1">
>>>>>>> Stashed changes
          <mxGeometry x="550" y="540" width="120" height="60" as="geometry" />
        </mxCell>
        <mxCell id="PUA4zZ7eV-MUCZfb3W8y-14" style="edgeStyle=orthogonalEdgeStyle;rounded=0;orthogonalLoop=1;jettySize=auto;html=1;exitX=0.5;exitY=1;exitDx=0;exitDy=0;entryX=0;entryY=0.5;entryDx=0;entryDy=0;fontStyle=0;fontSize=15;strokeWidth=2;" parent="1" source="PUA4zZ7eV-MUCZfb3W8y-7" target="PUA4zZ7eV-MUCZfb3W8y-13" edge="1">
          <mxGeometry relative="1" as="geometry" />
        </mxCell>
        <mxCell id="PUA4zZ7eV-MUCZfb3W8y-119" style="edgeStyle=orthogonalEdgeStyle;rounded=0;orthogonalLoop=1;jettySize=auto;html=1;exitX=0.5;exitY=1;exitDx=0;exitDy=0;entryX=0;entryY=0.5;entryDx=0;entryDy=0;fontStyle=0;fontSize=15;strokeWidth=2;" parent="1" source="PUA4zZ7eV-MUCZfb3W8y-7" target="PUA4zZ7eV-MUCZfb3W8y-83" edge="1">
          <mxGeometry relative="1" as="geometry" />
        </mxCell>
        <mxCell id="PUA4zZ7eV-MUCZfb3W8y-120" style="edgeStyle=orthogonalEdgeStyle;rounded=0;orthogonalLoop=1;jettySize=auto;html=1;exitX=0.5;exitY=1;exitDx=0;exitDy=0;entryX=0;entryY=0.5;entryDx=0;entryDy=0;fontStyle=0;fontSize=15;strokeWidth=2;" parent="1" source="PUA4zZ7eV-MUCZfb3W8y-7" target="PUA4zZ7eV-MUCZfb3W8y-65" edge="1">
          <mxGeometry relative="1" as="geometry" />
        </mxCell>
        <mxCell id="PUA4zZ7eV-MUCZfb3W8y-121" style="edgeStyle=orthogonalEdgeStyle;rounded=0;orthogonalLoop=1;jettySize=auto;html=1;exitX=0.5;exitY=1;exitDx=0;exitDy=0;entryX=0;entryY=0.5;entryDx=0;entryDy=0;fontStyle=0;fontSize=15;strokeWidth=2;" parent="1" source="PUA4zZ7eV-MUCZfb3W8y-7" target="PUA4zZ7eV-MUCZfb3W8y-66" edge="1">
          <mxGeometry relative="1" as="geometry" />
        </mxCell>
        <mxCell id="PUA4zZ7eV-MUCZfb3W8y-122" style="edgeStyle=orthogonalEdgeStyle;rounded=0;orthogonalLoop=1;jettySize=auto;html=1;exitX=0.5;exitY=1;exitDx=0;exitDy=0;entryX=0;entryY=0.5;entryDx=0;entryDy=0;fontStyle=0;fontSize=15;strokeWidth=2;" parent="1" source="PUA4zZ7eV-MUCZfb3W8y-7" target="PUA4zZ7eV-MUCZfb3W8y-69" edge="1">
          <mxGeometry relative="1" as="geometry" />
        </mxCell>
        <mxCell id="PUA4zZ7eV-MUCZfb3W8y-123" style="edgeStyle=orthogonalEdgeStyle;rounded=0;orthogonalLoop=1;jettySize=auto;html=1;exitX=0.5;exitY=1;exitDx=0;exitDy=0;entryX=0;entryY=0.5;entryDx=0;entryDy=0;fontStyle=0;fontSize=15;strokeWidth=2;" parent="1" source="PUA4zZ7eV-MUCZfb3W8y-7" target="PUA4zZ7eV-MUCZfb3W8y-70" edge="1">
          <mxGeometry relative="1" as="geometry" />
        </mxCell>
        <mxCell id="PUA4zZ7eV-MUCZfb3W8y-124" style="edgeStyle=orthogonalEdgeStyle;rounded=0;orthogonalLoop=1;jettySize=auto;html=1;exitX=0.5;exitY=1;exitDx=0;exitDy=0;entryX=0;entryY=0.5;entryDx=0;entryDy=0;fontStyle=0;fontSize=15;strokeWidth=2;" parent="1" source="PUA4zZ7eV-MUCZfb3W8y-7" target="PUA4zZ7eV-MUCZfb3W8y-67" edge="1">
          <mxGeometry relative="1" as="geometry" />
        </mxCell>
<<<<<<< Updated upstream
        <mxCell id="PUA4zZ7eV-MUCZfb3W8y-7" value="&lt;div&gt;5&lt;/div&gt;UI &amp;amp; UX" style="rounded=0;whiteSpace=wrap;html=1;sketch=1;curveFitting=1;jiggle=2;fillColor=#E6E6E6;fontStyle=0;fontSize=15;" parent="1" vertex="1">
          <mxGeometry x="787" y="540" width="120" height="60" as="geometry" />
        </mxCell>
        <mxCell id="PUA4zZ7eV-MUCZfb3W8y-13" value="5.1&lt;div&gt;Dialogue System&lt;/div&gt;" style="rounded=0;whiteSpace=wrap;html=1;sketch=1;curveFitting=1;jiggle=2;fillColor=#B9E0A5;fontStyle=0;fontSize=15;" parent="1" vertex="1">
          <mxGeometry x="870" y="640" width="120" height="60" as="geometry" />
        </mxCell>
        <mxCell id="PUA4zZ7eV-MUCZfb3W8y-15" value="4.1&lt;div&gt;Layout&lt;/div&gt;" style="rounded=0;whiteSpace=wrap;html=1;sketch=1;curveFitting=1;jiggle=2;fillColor=#A9C4EB;fontStyle=0;fontSize=15;" parent="1" vertex="1">
          <mxGeometry x="630" y="640" width="120" height="60" as="geometry" />
        </mxCell>
        <mxCell id="PUA4zZ7eV-MUCZfb3W8y-17" value="3.1&lt;div&gt;Money System&lt;/div&gt;" style="rounded=0;whiteSpace=wrap;html=1;sketch=1;curveFitting=1;jiggle=2;fillColor=#B9E0A5;fontStyle=0;fontSize=15;" parent="1" vertex="1">
          <mxGeometry x="400" y="640" width="120" height="60" as="geometry" />
        </mxCell>
        <mxCell id="PUA4zZ7eV-MUCZfb3W8y-19" value="2.1&lt;div&gt;Buying Tanks&lt;/div&gt;" style="rounded=0;whiteSpace=wrap;html=1;sketch=1;curveFitting=1;jiggle=2;fillColor=#A9C4EB;fontStyle=0;fontSize=15;" parent="1" vertex="1">
          <mxGeometry x="150" y="640" width="120" height="60" as="geometry" />
        </mxCell>
        <mxCell id="PUA4zZ7eV-MUCZfb3W8y-21" value="&lt;div&gt;1.1&lt;/div&gt;Shrimp Movement" style="rounded=0;whiteSpace=wrap;html=1;sketch=1;curveFitting=1;jiggle=2;fillColor=#B9E0A5;fontStyle=0;fontSize=15;" parent="1" vertex="1">
=======
        <mxCell id="PUA4zZ7eV-MUCZfb3W8y-7" value="1.5&lt;div&gt;UI &amp;amp; UX&lt;/div&gt;" style="rounded=0;whiteSpace=wrap;html=1;sketch=1;curveFitting=1;jiggle=2;fillColor=#E6E6E6;fontStyle=0;fontSize=15;" parent="1" vertex="1">
          <mxGeometry x="787" y="540" width="120" height="60" as="geometry" />
        </mxCell>
        <mxCell id="PUA4zZ7eV-MUCZfb3W8y-13" value="1.5.1&lt;div&gt;Dialogue System&lt;/div&gt;" style="rounded=0;whiteSpace=wrap;html=1;sketch=1;curveFitting=1;jiggle=2;fillColor=#B9E0A5;fontStyle=0;fontSize=15;" parent="1" vertex="1">
          <mxGeometry x="870" y="640" width="120" height="60" as="geometry" />
        </mxCell>
        <mxCell id="PUA4zZ7eV-MUCZfb3W8y-15" value="1.4.1&lt;div&gt;Layout&lt;/div&gt;" style="rounded=0;whiteSpace=wrap;html=1;sketch=1;curveFitting=1;jiggle=2;fillColor=#A9C4EB;fontStyle=0;fontSize=15;" parent="1" vertex="1">
          <mxGeometry x="630" y="640" width="120" height="60" as="geometry" />
        </mxCell>
        <mxCell id="PUA4zZ7eV-MUCZfb3W8y-17" value="1.3.1&lt;div&gt;Money System&lt;/div&gt;" style="rounded=0;whiteSpace=wrap;html=1;sketch=1;curveFitting=1;jiggle=2;fillColor=#B9E0A5;fontStyle=0;fontSize=15;" parent="1" vertex="1">
          <mxGeometry x="400" y="640" width="120" height="60" as="geometry" />
        </mxCell>
        <mxCell id="PUA4zZ7eV-MUCZfb3W8y-19" value="&lt;div&gt;1.2.1&lt;/div&gt;Buying Tanks" style="rounded=0;whiteSpace=wrap;html=1;sketch=1;curveFitting=1;jiggle=2;fillColor=#A9C4EB;fontStyle=0;fontSize=15;" parent="1" vertex="1">
          <mxGeometry x="150" y="640" width="120" height="60" as="geometry" />
        </mxCell>
        <mxCell id="PUA4zZ7eV-MUCZfb3W8y-21" value="&lt;div&gt;1.1.1&lt;/div&gt;Shrimp Movement" style="rounded=0;whiteSpace=wrap;html=1;sketch=1;curveFitting=1;jiggle=2;fillColor=#B9E0A5;fontStyle=0;fontSize=15;" parent="1" vertex="1">
>>>>>>> Stashed changes
          <mxGeometry x="-90" y="640" width="120" height="60" as="geometry" />
        </mxCell>
        <mxCell id="PUA4zZ7eV-MUCZfb3W8y-90" style="edgeStyle=orthogonalEdgeStyle;rounded=0;orthogonalLoop=1;jettySize=auto;html=1;exitX=0.5;exitY=1;exitDx=0;exitDy=0;entryX=0;entryY=0.5;entryDx=0;entryDy=0;fontStyle=0;fontSize=15;strokeWidth=2;" parent="1" source="PUA4zZ7eV-MUCZfb3W8y-24" target="PUA4zZ7eV-MUCZfb3W8y-61" edge="1">
          <mxGeometry relative="1" as="geometry" />
        </mxCell>
        <mxCell id="PUA4zZ7eV-MUCZfb3W8y-91" style="edgeStyle=orthogonalEdgeStyle;rounded=0;orthogonalLoop=1;jettySize=auto;html=1;exitX=0.5;exitY=1;exitDx=0;exitDy=0;entryX=0;entryY=0.5;entryDx=0;entryDy=0;fontStyle=0;fontSize=15;strokeWidth=2;" parent="1" source="PUA4zZ7eV-MUCZfb3W8y-24" target="PUA4zZ7eV-MUCZfb3W8y-62" edge="1">
          <mxGeometry relative="1" as="geometry" />
        </mxCell>
<<<<<<< Updated upstream
        <mxCell id="PUA4zZ7eV-MUCZfb3W8y-24" value="&lt;div&gt;1.2&lt;/div&gt;Shrimp Breeding" style="rounded=0;whiteSpace=wrap;html=1;sketch=1;curveFitting=1;jiggle=2;fillColor=#B9E0A5;fontStyle=0;fontSize=15;" parent="1" vertex="1">
          <mxGeometry x="-90" y="730" width="120" height="60" as="geometry" />
        </mxCell>
        <mxCell id="PUA4zZ7eV-MUCZfb3W8y-25" value="1.3&lt;div&gt;Shrimp Lifecycle&lt;/div&gt;" style="rounded=0;whiteSpace=wrap;html=1;sketch=1;curveFitting=1;jiggle=2;fillColor=#B9E0A5;fontStyle=0;fontSize=15;" parent="1" vertex="1">
          <mxGeometry x="-90" y="1010" width="120" height="60" as="geometry" />
        </mxCell>
        <mxCell id="PUA4zZ7eV-MUCZfb3W8y-26" value="1.4&lt;div&gt;Shrimp Stats&lt;/div&gt;" style="rounded=0;whiteSpace=wrap;html=1;sketch=1;curveFitting=1;jiggle=2;fillColor=#B9E0A5;fontStyle=0;fontSize=15;" parent="1" vertex="1">
          <mxGeometry x="-90" y="1100" width="120" height="60" as="geometry" />
        </mxCell>
        <mxCell id="PUA4zZ7eV-MUCZfb3W8y-27" value="1.5&lt;div&gt;Shrimp Fighting&lt;/div&gt;" style="rounded=0;whiteSpace=wrap;html=1;sketch=1;curveFitting=1;jiggle=2;fillColor=#B9E0A5;fontStyle=0;fontSize=15;" parent="1" vertex="1">
          <mxGeometry x="-90" y="1190" width="120" height="60" as="geometry" />
        </mxCell>
        <mxCell id="PUA4zZ7eV-MUCZfb3W8y-28" value="1.6&lt;div&gt;Shrimp Illness&lt;/div&gt;" style="rounded=0;whiteSpace=wrap;html=1;fillColor=#A9C4EB;strokeColor=#050505;gradientDirection=south;sketch=1;curveFitting=1;jiggle=2;fontStyle=0;fontSize=15;" parent="1" vertex="1">
          <mxGeometry x="-90" y="1280" width="120" height="60" as="geometry" />
        </mxCell>
        <mxCell id="PUA4zZ7eV-MUCZfb3W8y-30" value="2.6&lt;div&gt;Upgrades&lt;/div&gt;" style="rounded=0;whiteSpace=wrap;html=1;sketch=1;curveFitting=1;jiggle=2;fillColor=#A9C4EB;fontStyle=0;fontSize=15;" parent="1" vertex="1">
          <mxGeometry x="150" y="1100" width="120" height="60" as="geometry" />
        </mxCell>
        <mxCell id="PUA4zZ7eV-MUCZfb3W8y-32" value="2.2&lt;div&gt;Moving Items Between Tanks&lt;/div&gt;" style="rounded=0;whiteSpace=wrap;html=1;sketch=1;curveFitting=1;jiggle=2;fillColor=#B9E0A5;fontStyle=0;fontSize=15;" parent="1" vertex="1">
=======
        <mxCell id="PUA4zZ7eV-MUCZfb3W8y-24" value="&lt;div&gt;1.1.2&lt;/div&gt;Shrimp Breeding" style="rounded=0;whiteSpace=wrap;html=1;sketch=1;curveFitting=1;jiggle=2;fillColor=#B9E0A5;fontStyle=0;fontSize=15;" parent="1" vertex="1">
          <mxGeometry x="-90" y="730" width="120" height="60" as="geometry" />
        </mxCell>
        <mxCell id="PUA4zZ7eV-MUCZfb3W8y-25" value="&lt;div&gt;1.1.3&lt;/div&gt;Shrimp Lifecycle" style="rounded=0;whiteSpace=wrap;html=1;sketch=1;curveFitting=1;jiggle=2;fillColor=#B9E0A5;fontStyle=0;fontSize=15;" parent="1" vertex="1">
          <mxGeometry x="-90" y="1010" width="120" height="60" as="geometry" />
        </mxCell>
        <mxCell id="PUA4zZ7eV-MUCZfb3W8y-26" value="1.1.4&lt;br&gt;&lt;div&gt;Shrimp Stats&lt;/div&gt;" style="rounded=0;whiteSpace=wrap;html=1;sketch=1;curveFitting=1;jiggle=2;fillColor=#B9E0A5;fontStyle=0;fontSize=15;" parent="1" vertex="1">
          <mxGeometry x="-90" y="1100" width="120" height="60" as="geometry" />
        </mxCell>
        <mxCell id="PUA4zZ7eV-MUCZfb3W8y-27" value="1.1.5&lt;div&gt;Shrimp Fighting&lt;/div&gt;" style="rounded=0;whiteSpace=wrap;html=1;sketch=1;curveFitting=1;jiggle=2;fillColor=#B9E0A5;fontStyle=0;fontSize=15;" parent="1" vertex="1">
          <mxGeometry x="-90" y="1190" width="120" height="60" as="geometry" />
        </mxCell>
        <mxCell id="PUA4zZ7eV-MUCZfb3W8y-28" value="1.1.6&lt;div&gt;Shrimp Illness&lt;/div&gt;" style="rounded=0;whiteSpace=wrap;html=1;fillColor=#A9C4EB;strokeColor=#050505;gradientDirection=south;sketch=1;curveFitting=1;jiggle=2;fontStyle=0;fontSize=15;" parent="1" vertex="1">
          <mxGeometry x="-90" y="1280" width="120" height="60" as="geometry" />
        </mxCell>
        <mxCell id="PUA4zZ7eV-MUCZfb3W8y-30" value="1.2.6&lt;div&gt;Upgrades&lt;/div&gt;" style="rounded=0;whiteSpace=wrap;html=1;sketch=1;curveFitting=1;jiggle=2;fillColor=#A9C4EB;fontStyle=0;fontSize=15;" parent="1" vertex="1">
          <mxGeometry x="150" y="1100" width="120" height="60" as="geometry" />
        </mxCell>
        <mxCell id="PUA4zZ7eV-MUCZfb3W8y-32" value="1.2.2&lt;div&gt;Moving Items Between Tanks&lt;/div&gt;" style="rounded=0;whiteSpace=wrap;html=1;sketch=1;curveFitting=1;jiggle=2;fillColor=#B9E0A5;fontStyle=0;fontSize=15;" parent="1" vertex="1">
>>>>>>> Stashed changes
          <mxGeometry x="150" y="730" width="120" height="60" as="geometry" />
        </mxCell>
        <mxCell id="PUA4zZ7eV-MUCZfb3W8y-84" style="edgeStyle=orthogonalEdgeStyle;rounded=0;orthogonalLoop=1;jettySize=auto;html=1;exitX=0.5;exitY=1;exitDx=0;exitDy=0;entryX=0;entryY=0.5;entryDx=0;entryDy=0;fontStyle=0;fontSize=15;strokeWidth=2;" parent="1" source="PUA4zZ7eV-MUCZfb3W8y-33" target="PUA4zZ7eV-MUCZfb3W8y-73" edge="1">
          <mxGeometry relative="1" as="geometry" />
        </mxCell>
        <mxCell id="PUA4zZ7eV-MUCZfb3W8y-85" style="edgeStyle=orthogonalEdgeStyle;rounded=0;orthogonalLoop=1;jettySize=auto;html=1;exitX=0.5;exitY=1;exitDx=0;exitDy=0;entryX=0;entryY=0.5;entryDx=0;entryDy=0;fontStyle=0;fontSize=15;strokeWidth=2;" parent="1" source="PUA4zZ7eV-MUCZfb3W8y-33" target="PUA4zZ7eV-MUCZfb3W8y-74" edge="1">
          <mxGeometry relative="1" as="geometry" />
        </mxCell>
        <mxCell id="PUA4zZ7eV-MUCZfb3W8y-86" style="edgeStyle=orthogonalEdgeStyle;rounded=0;orthogonalLoop=1;jettySize=auto;html=1;exitX=0.5;exitY=1;exitDx=0;exitDy=0;entryX=0;entryY=0.5;entryDx=0;entryDy=0;fontStyle=0;fontSize=15;strokeWidth=2;" parent="1" source="PUA4zZ7eV-MUCZfb3W8y-33" target="PUA4zZ7eV-MUCZfb3W8y-76" edge="1">
          <mxGeometry relative="1" as="geometry" />
        </mxCell>
        <mxCell id="PUA4zZ7eV-MUCZfb3W8y-87" style="edgeStyle=orthogonalEdgeStyle;rounded=0;orthogonalLoop=1;jettySize=auto;html=1;exitX=0.5;exitY=1;exitDx=0;exitDy=0;entryX=0;entryY=0.5;entryDx=0;entryDy=0;fontStyle=0;fontSize=15;strokeWidth=2;" parent="1" source="PUA4zZ7eV-MUCZfb3W8y-33" target="PUA4zZ7eV-MUCZfb3W8y-75" edge="1">
          <mxGeometry relative="1" as="geometry" />
        </mxCell>
<<<<<<< Updated upstream
        <mxCell id="PUA4zZ7eV-MUCZfb3W8y-33" value="1.7&lt;div&gt;Shrimp Models&lt;/div&gt;" style="rounded=0;whiteSpace=wrap;html=1;sketch=1;curveFitting=1;jiggle=2;fillColor=#F19C99;fontStyle=0;fontSize=15;" parent="1" vertex="1">
          <mxGeometry x="-90" y="1370" width="120" height="60" as="geometry" />
        </mxCell>
        <mxCell id="PUA4zZ7eV-MUCZfb3W8y-35" value="1.8&lt;div&gt;Shrimp Rigging&lt;/div&gt;" style="rounded=0;whiteSpace=wrap;html=1;sketch=1;curveFitting=1;jiggle=2;fillColor=#F19C99;fontStyle=0;fontSize=15;" parent="1" vertex="1">
          <mxGeometry x="-90" y="1820" width="120" height="60" as="geometry" />
        </mxCell>
        <mxCell id="PUA4zZ7eV-MUCZfb3W8y-36" value="1.10&lt;div&gt;Shrimp Animations&lt;/div&gt;" style="rounded=0;whiteSpace=wrap;html=1;sketch=1;curveFitting=1;jiggle=2;fillColor=#F19C99;fontStyle=0;fontSize=15;" parent="1" vertex="1">
          <mxGeometry x="-90" y="2000" width="120" height="60" as="geometry" />
        </mxCell>
        <mxCell id="PUA4zZ7eV-MUCZfb3W8y-37" value="4.2&lt;div&gt;Set Dressing&lt;/div&gt;" style="rounded=0;whiteSpace=wrap;html=1;sketch=1;curveFitting=1;jiggle=2;fillColor=#A9C4EB;fontStyle=0;fontSize=15;" parent="1" vertex="1">
          <mxGeometry x="630" y="730" width="120" height="60" as="geometry" />
        </mxCell>
        <mxCell id="PUA4zZ7eV-MUCZfb3W8y-38" value="4.3&lt;div&gt;Player Movement&lt;/div&gt;" style="rounded=0;whiteSpace=wrap;html=1;sketch=1;curveFitting=1;jiggle=2;fillColor=#A9C4EB;fontStyle=0;fontSize=15;" parent="1" vertex="1">
          <mxGeometry x="630" y="825" width="120" height="60" as="geometry" />
        </mxCell>
        <mxCell id="PUA4zZ7eV-MUCZfb3W8y-39" value="4.4&lt;div&gt;Camera Movement&lt;/div&gt;" style="rounded=0;whiteSpace=wrap;html=1;sketch=1;curveFitting=1;jiggle=2;fillColor=#A9C4EB;fontStyle=0;fontSize=15;" parent="1" vertex="1">
          <mxGeometry x="630" y="920" width="120" height="60" as="geometry" />
        </mxCell>
        <mxCell id="PUA4zZ7eV-MUCZfb3W8y-40" value="4.5&lt;div&gt;Interacting&lt;/div&gt;" style="rounded=0;whiteSpace=wrap;html=1;sketch=1;curveFitting=1;jiggle=2;fillColor=#A9C4EB;fontStyle=0;fontSize=15;" parent="1" vertex="1">
=======
        <mxCell id="PUA4zZ7eV-MUCZfb3W8y-33" value="1.1.7&lt;div&gt;Shrimp Models&lt;/div&gt;" style="rounded=0;whiteSpace=wrap;html=1;sketch=1;curveFitting=1;jiggle=2;fillColor=#F19C99;fontStyle=0;fontSize=15;" parent="1" vertex="1">
          <mxGeometry x="-90" y="1370" width="120" height="60" as="geometry" />
        </mxCell>
        <mxCell id="PUA4zZ7eV-MUCZfb3W8y-35" value="1.1.8&lt;div&gt;Shrimp Rigging&lt;/div&gt;" style="rounded=0;whiteSpace=wrap;html=1;sketch=1;curveFitting=1;jiggle=2;fillColor=#F19C99;fontStyle=0;fontSize=15;" parent="1" vertex="1">
          <mxGeometry x="-90" y="1820" width="120" height="60" as="geometry" />
        </mxCell>
        <mxCell id="PUA4zZ7eV-MUCZfb3W8y-36" value="1.1.10&lt;div&gt;Shrimp Animations&lt;/div&gt;" style="rounded=0;whiteSpace=wrap;html=1;sketch=1;curveFitting=1;jiggle=2;fillColor=#F19C99;fontStyle=0;fontSize=15;" parent="1" vertex="1">
          <mxGeometry x="-90" y="2000" width="120" height="60" as="geometry" />
        </mxCell>
        <mxCell id="PUA4zZ7eV-MUCZfb3W8y-37" value="1.4.2&lt;div&gt;Set Dressing&lt;/div&gt;" style="rounded=0;whiteSpace=wrap;html=1;sketch=1;curveFitting=1;jiggle=2;fillColor=#A9C4EB;fontStyle=0;fontSize=15;" parent="1" vertex="1">
          <mxGeometry x="630" y="730" width="120" height="60" as="geometry" />
        </mxCell>
        <mxCell id="PUA4zZ7eV-MUCZfb3W8y-38" value="1.4.3&lt;div&gt;Player Movement&lt;/div&gt;" style="rounded=0;whiteSpace=wrap;html=1;sketch=1;curveFitting=1;jiggle=2;fillColor=#A9C4EB;fontStyle=0;fontSize=15;" parent="1" vertex="1">
          <mxGeometry x="630" y="825" width="120" height="60" as="geometry" />
        </mxCell>
        <mxCell id="PUA4zZ7eV-MUCZfb3W8y-39" value="1.4.4&lt;div&gt;Camera Movement&lt;/div&gt;" style="rounded=0;whiteSpace=wrap;html=1;sketch=1;curveFitting=1;jiggle=2;fillColor=#A9C4EB;fontStyle=0;fontSize=15;" parent="1" vertex="1">
          <mxGeometry x="630" y="920" width="120" height="60" as="geometry" />
        </mxCell>
        <mxCell id="PUA4zZ7eV-MUCZfb3W8y-40" value="1.4.5&lt;div&gt;Interacting&lt;/div&gt;" style="rounded=0;whiteSpace=wrap;html=1;sketch=1;curveFitting=1;jiggle=2;fillColor=#A9C4EB;fontStyle=0;fontSize=15;" parent="1" vertex="1">
>>>>>>> Stashed changes
          <mxGeometry x="630" y="1010" width="120" height="60" as="geometry" />
        </mxCell>
        <mxCell id="PUA4zZ7eV-MUCZfb3W8y-41" style="edgeStyle=orthogonalEdgeStyle;rounded=0;orthogonalLoop=1;jettySize=auto;html=1;exitX=0.5;exitY=1;exitDx=0;exitDy=0;entryX=0;entryY=0.5;entryDx=0;entryDy=0;fontStyle=0;fontSize=15;strokeWidth=2;" parent="1" source="PUA4zZ7eV-MUCZfb3W8y-42" target="PUA4zZ7eV-MUCZfb3W8y-43" edge="1">
          <mxGeometry relative="1" as="geometry" />
        </mxCell>
        <mxCell id="PUA4zZ7eV-MUCZfb3W8y-125" style="edgeStyle=orthogonalEdgeStyle;rounded=0;orthogonalLoop=1;jettySize=auto;html=1;exitX=0.5;exitY=1;exitDx=0;exitDy=0;entryX=0;entryY=0.5;entryDx=0;entryDy=0;fontStyle=0;fontSize=15;strokeWidth=2;" parent="1" source="PUA4zZ7eV-MUCZfb3W8y-42" target="PUA4zZ7eV-MUCZfb3W8y-50" edge="1">
          <mxGeometry relative="1" as="geometry" />
        </mxCell>
        <mxCell id="PUA4zZ7eV-MUCZfb3W8y-127" style="edgeStyle=orthogonalEdgeStyle;rounded=0;orthogonalLoop=1;jettySize=auto;html=1;exitX=0.5;exitY=1;exitDx=0;exitDy=0;entryX=0;entryY=0.5;entryDx=0;entryDy=0;fontStyle=0;fontSize=15;strokeWidth=2;" parent="1" source="PUA4zZ7eV-MUCZfb3W8y-42" target="PUA4zZ7eV-MUCZfb3W8y-45" edge="1">
          <mxGeometry relative="1" as="geometry" />
        </mxCell>
        <mxCell id="PUA4zZ7eV-MUCZfb3W8y-128" style="edgeStyle=orthogonalEdgeStyle;rounded=0;orthogonalLoop=1;jettySize=auto;html=1;exitX=0.5;exitY=1;exitDx=0;exitDy=0;entryX=0;entryY=0.5;entryDx=0;entryDy=0;fontStyle=0;fontSize=15;strokeWidth=2;" parent="1" source="PUA4zZ7eV-MUCZfb3W8y-42" target="PUA4zZ7eV-MUCZfb3W8y-51" edge="1">
          <mxGeometry relative="1" as="geometry" />
        </mxCell>
        <mxCell id="PUA4zZ7eV-MUCZfb3W8y-129" style="edgeStyle=orthogonalEdgeStyle;rounded=0;orthogonalLoop=1;jettySize=auto;html=1;exitX=0.5;exitY=1;exitDx=0;exitDy=0;entryX=0;entryY=0.5;entryDx=0;entryDy=0;fontStyle=0;fontSize=15;strokeWidth=2;" parent="1" source="PUA4zZ7eV-MUCZfb3W8y-42" target="PUA4zZ7eV-MUCZfb3W8y-52" edge="1">
          <mxGeometry relative="1" as="geometry" />
        </mxCell>
        <mxCell id="PUA4zZ7eV-MUCZfb3W8y-130" style="edgeStyle=orthogonalEdgeStyle;rounded=0;orthogonalLoop=1;jettySize=auto;html=1;exitX=0.5;exitY=1;exitDx=0;exitDy=0;entryX=0;entryY=0.5;entryDx=0;entryDy=0;fontStyle=0;fontSize=15;strokeWidth=2;" parent="1" source="PUA4zZ7eV-MUCZfb3W8y-42" target="PUA4zZ7eV-MUCZfb3W8y-59" edge="1">
          <mxGeometry relative="1" as="geometry" />
        </mxCell>
        <mxCell id="PUA4zZ7eV-MUCZfb3W8y-131" style="edgeStyle=orthogonalEdgeStyle;rounded=0;orthogonalLoop=1;jettySize=auto;html=1;exitX=0.5;exitY=1;exitDx=0;exitDy=0;entryX=0;entryY=0.5;entryDx=0;entryDy=0;fontStyle=0;fontSize=15;strokeWidth=2;" parent="1" source="PUA4zZ7eV-MUCZfb3W8y-42" target="PUA4zZ7eV-MUCZfb3W8y-60" edge="1">
          <mxGeometry relative="1" as="geometry" />
        </mxCell>
<<<<<<< Updated upstream
        <mxCell id="PUA4zZ7eV-MUCZfb3W8y-42" value="&lt;div&gt;6&lt;/div&gt;Admin" style="rounded=0;whiteSpace=wrap;html=1;sketch=1;curveFitting=1;jiggle=2;fillColor=#E6E6E6;fontStyle=0;fontSize=15;" parent="1" vertex="1">
          <mxGeometry x="1030" y="540" width="120" height="60" as="geometry" />
        </mxCell>
        <mxCell id="PUA4zZ7eV-MUCZfb3W8y-43" value="6.1&lt;div&gt;GDD&lt;/div&gt;" style="rounded=0;whiteSpace=wrap;html=1;sketch=1;curveFitting=1;jiggle=2;fillColor=#A9C4EB;fontStyle=0;fontSize=15;" parent="1" vertex="1">
          <mxGeometry x="1113" y="640" width="120" height="60" as="geometry" />
        </mxCell>
        <mxCell id="PUA4zZ7eV-MUCZfb3W8y-45" value="6.3&lt;div&gt;Marketing&lt;/div&gt;" style="rounded=0;whiteSpace=wrap;html=1;sketch=1;curveFitting=1;jiggle=2;fillColor=#E6E6E6;fontStyle=0;fontSize=15;" parent="1" vertex="1">
          <mxGeometry x="1116" y="820" width="120" height="60" as="geometry" />
        </mxCell>
        <mxCell id="PUA4zZ7eV-MUCZfb3W8y-47" value="2.3&lt;div&gt;Tank Decorating System&lt;/div&gt;" style="rounded=0;whiteSpace=wrap;html=1;sketch=1;curveFitting=1;jiggle=2;fillColor=#B9E0A5;fontStyle=0;fontSize=15;" parent="1" vertex="1">
          <mxGeometry x="150" y="825" width="120" height="60" as="geometry" />
        </mxCell>
        <mxCell id="PUA4zZ7eV-MUCZfb3W8y-48" value="2.4&lt;div&gt;Decoration Models&lt;/div&gt;" style="rounded=0;whiteSpace=wrap;html=1;sketch=1;curveFitting=1;jiggle=2;fillColor=#F19C99;fontStyle=0;fontSize=15;" parent="1" vertex="1">
          <mxGeometry x="150" y="920" width="120" height="60" as="geometry" />
        </mxCell>
        <mxCell id="PUA4zZ7eV-MUCZfb3W8y-49" value="2.5&lt;div&gt;Decoration Textures&lt;/div&gt;" style="rounded=0;whiteSpace=wrap;html=1;sketch=1;curveFitting=1;jiggle=2;fillColor=#F19C99;fontStyle=0;fontSize=15;" parent="1" vertex="1">
          <mxGeometry x="150" y="1010" width="120" height="60" as="geometry" />
        </mxCell>
        <mxCell id="PUA4zZ7eV-MUCZfb3W8y-50" value="6.2&lt;div&gt;Gantt Chart&lt;/div&gt;" style="rounded=0;whiteSpace=wrap;html=1;sketch=1;curveFitting=1;jiggle=2;fillColor=#E6E6E6;fontStyle=0;fontSize=15;" parent="1" vertex="1">
          <mxGeometry x="1113" y="730" width="120" height="60" as="geometry" />
        </mxCell>
        <mxCell id="PUA4zZ7eV-MUCZfb3W8y-51" value="6.4&lt;div&gt;Code Design&lt;/div&gt;" style="rounded=0;whiteSpace=wrap;html=1;sketch=1;curveFitting=1;jiggle=2;fillColor=#B9E0A5;fontStyle=0;fontSize=15;" parent="1" vertex="1">
          <mxGeometry x="1116" y="910" width="120" height="60" as="geometry" />
        </mxCell>
        <mxCell id="PUA4zZ7eV-MUCZfb3W8y-52" value="6.5&lt;div&gt;Art Bible&lt;/div&gt;" style="rounded=0;whiteSpace=wrap;html=1;sketch=1;curveFitting=1;jiggle=2;fillColor=#F19C99;fontStyle=0;fontSize=15;" parent="1" vertex="1">
          <mxGeometry x="1116" y="1000" width="120" height="60" as="geometry" />
        </mxCell>
        <mxCell id="PUA4zZ7eV-MUCZfb3W8y-54" value="4.6&lt;div&gt;Sound Effects&lt;/div&gt;" style="rounded=0;whiteSpace=wrap;html=1;sketch=1;curveFitting=1;jiggle=2;fillColor=#A9C4EB;fontStyle=0;fontSize=15;" parent="1" vertex="1">
          <mxGeometry x="630" y="1100" width="120" height="60" as="geometry" />
        </mxCell>
        <mxCell id="PUA4zZ7eV-MUCZfb3W8y-55" value="4.7&lt;div&gt;Music&lt;/div&gt;" style="rounded=0;whiteSpace=wrap;html=1;sketch=1;curveFitting=1;jiggle=2;fillColor=#A9C4EB;fontStyle=0;fontSize=15;" parent="1" vertex="1">
          <mxGeometry x="630" y="1190" width="120" height="60" as="geometry" />
        </mxCell>
        <mxCell id="PUA4zZ7eV-MUCZfb3W8y-56" value="3.2&lt;div&gt;Shrimp Buying&lt;/div&gt;" style="rounded=0;whiteSpace=wrap;html=1;sketch=1;curveFitting=1;jiggle=2;fillColor=#B9E0A5;fontStyle=0;fontSize=15;" parent="1" vertex="1">
          <mxGeometry x="400" y="730" width="120" height="60" as="geometry" />
        </mxCell>
        <mxCell id="PUA4zZ7eV-MUCZfb3W8y-57" value="3.3&lt;div&gt;Shrimp Selling&lt;/div&gt;" style="rounded=0;whiteSpace=wrap;html=1;sketch=1;curveFitting=1;jiggle=2;fillColor=#B9E0A5;fontStyle=0;fontSize=15;" parent="1" vertex="1">
          <mxGeometry x="400" y="825" width="120" height="60" as="geometry" />
        </mxCell>
        <mxCell id="PUA4zZ7eV-MUCZfb3W8y-58" value="3.4&lt;div&gt;Supply Shop&lt;/div&gt;" style="rounded=0;whiteSpace=wrap;html=1;sketch=1;curveFitting=1;jiggle=2;fillColor=#A9C4EB;fontStyle=0;fontSize=15;" parent="1" vertex="1">
          <mxGeometry x="400" y="920" width="120" height="60" as="geometry" />
        </mxCell>
        <mxCell id="PUA4zZ7eV-MUCZfb3W8y-59" value="6.6&lt;div&gt;Steam Page&lt;/div&gt;" style="rounded=0;whiteSpace=wrap;html=1;sketch=1;curveFitting=1;jiggle=2;fillColor=#A9C4EB;fontStyle=0;fontSize=15;" parent="1" vertex="1">
=======
        <mxCell id="PUA4zZ7eV-MUCZfb3W8y-42" value="1.6&lt;div&gt;Admin&lt;/div&gt;" style="rounded=0;whiteSpace=wrap;html=1;sketch=1;curveFitting=1;jiggle=2;fillColor=#E6E6E6;fontStyle=0;fontSize=15;" parent="1" vertex="1">
          <mxGeometry x="1030" y="540" width="120" height="60" as="geometry" />
        </mxCell>
        <mxCell id="PUA4zZ7eV-MUCZfb3W8y-43" value="1.6.1&lt;div&gt;GDD&lt;/div&gt;" style="rounded=0;whiteSpace=wrap;html=1;sketch=1;curveFitting=1;jiggle=2;fillColor=#A9C4EB;fontStyle=0;fontSize=15;" parent="1" vertex="1">
          <mxGeometry x="1113" y="640" width="120" height="60" as="geometry" />
        </mxCell>
        <mxCell id="PUA4zZ7eV-MUCZfb3W8y-45" value="1.6.3&lt;div&gt;Marketing&lt;/div&gt;" style="rounded=0;whiteSpace=wrap;html=1;sketch=1;curveFitting=1;jiggle=2;fillColor=#E6E6E6;fontStyle=0;fontSize=15;" parent="1" vertex="1">
          <mxGeometry x="1116" y="820" width="120" height="60" as="geometry" />
        </mxCell>
        <mxCell id="PUA4zZ7eV-MUCZfb3W8y-47" value="1.2.3&lt;div&gt;Tank Decorating System&lt;/div&gt;" style="rounded=0;whiteSpace=wrap;html=1;sketch=1;curveFitting=1;jiggle=2;fillColor=#B9E0A5;fontStyle=0;fontSize=15;" parent="1" vertex="1">
          <mxGeometry x="150" y="825" width="120" height="60" as="geometry" />
        </mxCell>
        <mxCell id="PUA4zZ7eV-MUCZfb3W8y-48" value="1.2.4&lt;div&gt;Decoration Models&lt;/div&gt;" style="rounded=0;whiteSpace=wrap;html=1;sketch=1;curveFitting=1;jiggle=2;fillColor=#F19C99;fontStyle=0;fontSize=15;" parent="1" vertex="1">
          <mxGeometry x="150" y="920" width="120" height="60" as="geometry" />
        </mxCell>
        <mxCell id="PUA4zZ7eV-MUCZfb3W8y-49" value="1.2.5&lt;div&gt;Decoration Textures&lt;/div&gt;" style="rounded=0;whiteSpace=wrap;html=1;sketch=1;curveFitting=1;jiggle=2;fillColor=#F19C99;fontStyle=0;fontSize=15;" parent="1" vertex="1">
          <mxGeometry x="150" y="1010" width="120" height="60" as="geometry" />
        </mxCell>
        <mxCell id="PUA4zZ7eV-MUCZfb3W8y-50" value="1.6.2&lt;div&gt;Gantt Chart&lt;/div&gt;" style="rounded=0;whiteSpace=wrap;html=1;sketch=1;curveFitting=1;jiggle=2;fillColor=#E6E6E6;fontStyle=0;fontSize=15;" parent="1" vertex="1">
          <mxGeometry x="1113" y="730" width="120" height="60" as="geometry" />
        </mxCell>
        <mxCell id="PUA4zZ7eV-MUCZfb3W8y-51" value="1.6.4&lt;div&gt;Code Design&lt;/div&gt;" style="rounded=0;whiteSpace=wrap;html=1;sketch=1;curveFitting=1;jiggle=2;fillColor=#B9E0A5;fontStyle=0;fontSize=15;" parent="1" vertex="1">
          <mxGeometry x="1116" y="910" width="120" height="60" as="geometry" />
        </mxCell>
        <mxCell id="PUA4zZ7eV-MUCZfb3W8y-52" value="1.6.5&lt;div&gt;Art Bible&lt;/div&gt;" style="rounded=0;whiteSpace=wrap;html=1;sketch=1;curveFitting=1;jiggle=2;fillColor=#F19C99;fontStyle=0;fontSize=15;" parent="1" vertex="1">
          <mxGeometry x="1116" y="1000" width="120" height="60" as="geometry" />
        </mxCell>
        <mxCell id="PUA4zZ7eV-MUCZfb3W8y-54" value="1.4.6&lt;div&gt;Sound Effects&lt;/div&gt;" style="rounded=0;whiteSpace=wrap;html=1;sketch=1;curveFitting=1;jiggle=2;fillColor=#A9C4EB;fontStyle=0;fontSize=15;" parent="1" vertex="1">
          <mxGeometry x="630" y="1100" width="120" height="60" as="geometry" />
        </mxCell>
        <mxCell id="PUA4zZ7eV-MUCZfb3W8y-55" value="1.4.7&lt;div&gt;Music&lt;/div&gt;" style="rounded=0;whiteSpace=wrap;html=1;sketch=1;curveFitting=1;jiggle=2;fillColor=#A9C4EB;fontStyle=0;fontSize=15;" parent="1" vertex="1">
          <mxGeometry x="630" y="1190" width="120" height="60" as="geometry" />
        </mxCell>
        <mxCell id="PUA4zZ7eV-MUCZfb3W8y-56" value="1.3.2&lt;div&gt;Shrimp Buying&lt;/div&gt;" style="rounded=0;whiteSpace=wrap;html=1;sketch=1;curveFitting=1;jiggle=2;fillColor=#B9E0A5;fontStyle=0;fontSize=15;" parent="1" vertex="1">
          <mxGeometry x="400" y="730" width="120" height="60" as="geometry" />
        </mxCell>
        <mxCell id="PUA4zZ7eV-MUCZfb3W8y-57" value="1.3.3&lt;div&gt;Shrimp Selling&lt;/div&gt;" style="rounded=0;whiteSpace=wrap;html=1;sketch=1;curveFitting=1;jiggle=2;fillColor=#B9E0A5;fontStyle=0;fontSize=15;" parent="1" vertex="1">
          <mxGeometry x="400" y="825" width="120" height="60" as="geometry" />
        </mxCell>
        <mxCell id="PUA4zZ7eV-MUCZfb3W8y-58" value="1.3.4&lt;div&gt;Supply Shop&lt;/div&gt;" style="rounded=0;whiteSpace=wrap;html=1;sketch=1;curveFitting=1;jiggle=2;fillColor=#A9C4EB;fontStyle=0;fontSize=15;" parent="1" vertex="1">
          <mxGeometry x="400" y="920" width="120" height="60" as="geometry" />
        </mxCell>
        <mxCell id="PUA4zZ7eV-MUCZfb3W8y-59" value="1.6.6&lt;div&gt;Steam Page&lt;/div&gt;" style="rounded=0;whiteSpace=wrap;html=1;sketch=1;curveFitting=1;jiggle=2;fillColor=#A9C4EB;fontStyle=0;fontSize=15;" parent="1" vertex="1">
>>>>>>> Stashed changes
          <mxGeometry x="1113" y="1090" width="120" height="60" as="geometry" />
        </mxCell>
        <mxCell id="PUA4zZ7eV-MUCZfb3W8y-132" style="edgeStyle=orthogonalEdgeStyle;rounded=0;orthogonalLoop=1;jettySize=auto;html=1;exitX=0.5;exitY=1;exitDx=0;exitDy=0;entryX=0;entryY=0.5;entryDx=0;entryDy=0;fontStyle=0;fontSize=15;strokeWidth=2;" parent="1" source="PUA4zZ7eV-MUCZfb3W8y-60" target="PUA4zZ7eV-MUCZfb3W8y-80" edge="1">
          <mxGeometry relative="1" as="geometry" />
        </mxCell>
        <mxCell id="PUA4zZ7eV-MUCZfb3W8y-133" style="edgeStyle=orthogonalEdgeStyle;rounded=0;orthogonalLoop=1;jettySize=auto;html=1;exitX=0.5;exitY=1;exitDx=0;exitDy=0;entryX=0;entryY=0.5;entryDx=0;entryDy=0;fontStyle=0;fontSize=15;strokeWidth=2;" parent="1" source="PUA4zZ7eV-MUCZfb3W8y-60" target="PUA4zZ7eV-MUCZfb3W8y-81" edge="1">
          <mxGeometry relative="1" as="geometry" />
        </mxCell>
        <mxCell id="PUA4zZ7eV-MUCZfb3W8y-134" style="edgeStyle=orthogonalEdgeStyle;rounded=0;orthogonalLoop=1;jettySize=auto;html=1;exitX=0.5;exitY=1;exitDx=0;exitDy=0;entryX=0;entryY=0.5;entryDx=0;entryDy=0;fontStyle=0;fontSize=15;strokeWidth=2;" parent="1" source="PUA4zZ7eV-MUCZfb3W8y-60" target="PUA4zZ7eV-MUCZfb3W8y-82" edge="1">
          <mxGeometry relative="1" as="geometry" />
        </mxCell>
<<<<<<< Updated upstream
        <mxCell id="PUA4zZ7eV-MUCZfb3W8y-60" value="6.7&lt;div&gt;Beta Test Preparation&lt;/div&gt;" style="rounded=0;whiteSpace=wrap;html=1;sketch=1;curveFitting=1;jiggle=2;fillColor=#E6E6E6;fontStyle=0;fontSize=15;" parent="1" vertex="1">
          <mxGeometry x="1113" y="1180" width="120" height="60" as="geometry" />
        </mxCell>
        <mxCell id="PUA4zZ7eV-MUCZfb3W8y-61" value="&lt;div&gt;1.2.1&lt;/div&gt;Eggs" style="rounded=0;whiteSpace=wrap;html=1;sketch=1;curveFitting=1;jiggle=2;fillColor=#B9E0A5;fontStyle=0;fontSize=15;" parent="1" vertex="1">
          <mxGeometry x="-10" y="825" width="120" height="60" as="geometry" />
        </mxCell>
        <mxCell id="PUA4zZ7eV-MUCZfb3W8y-62" value="1.2.2&lt;div&gt;Genes&lt;/div&gt;" style="rounded=0;whiteSpace=wrap;html=1;sketch=1;curveFitting=1;jiggle=2;fillColor=#B9E0A5;fontStyle=0;fontSize=15;" parent="1" vertex="1">
=======
        <mxCell id="PUA4zZ7eV-MUCZfb3W8y-60" value="1.6.7&lt;div&gt;Beta Test Preparation&lt;/div&gt;" style="rounded=0;whiteSpace=wrap;html=1;sketch=1;curveFitting=1;jiggle=2;fillColor=#E6E6E6;fontStyle=0;fontSize=15;" parent="1" vertex="1">
          <mxGeometry x="1113" y="1180" width="120" height="60" as="geometry" />
        </mxCell>
        <mxCell id="PUA4zZ7eV-MUCZfb3W8y-61" value="&lt;div&gt;1.1.2.1&lt;/div&gt;Eggs" style="rounded=0;whiteSpace=wrap;html=1;sketch=1;curveFitting=1;jiggle=2;fillColor=#B9E0A5;fontStyle=0;fontSize=15;" parent="1" vertex="1">
          <mxGeometry x="-10" y="825" width="120" height="60" as="geometry" />
        </mxCell>
        <mxCell id="PUA4zZ7eV-MUCZfb3W8y-62" value="&lt;div&gt;1.1.2.2&lt;/div&gt;Genes" style="rounded=0;whiteSpace=wrap;html=1;sketch=1;curveFitting=1;jiggle=2;fillColor=#B9E0A5;fontStyle=0;fontSize=15;" parent="1" vertex="1">
>>>>>>> Stashed changes
          <mxGeometry x="-10" y="920" width="120" height="60" as="geometry" />
        </mxCell>
        <mxCell id="_sJ0eMZxYpjguLuUmN_6-3" style="edgeStyle=orthogonalEdgeStyle;rounded=0;orthogonalLoop=1;jettySize=auto;html=1;exitX=0.5;exitY=1;exitDx=0;exitDy=0;entryX=0;entryY=0.5;entryDx=0;entryDy=0;strokeWidth=2;" parent="1" source="PUA4zZ7eV-MUCZfb3W8y-65" target="_sJ0eMZxYpjguLuUmN_6-2" edge="1">
          <mxGeometry relative="1" as="geometry" />
        </mxCell>
        <mxCell id="_sJ0eMZxYpjguLuUmN_6-10" style="edgeStyle=orthogonalEdgeStyle;rounded=0;orthogonalLoop=1;jettySize=auto;html=1;exitX=0.5;exitY=1;exitDx=0;exitDy=0;entryX=0;entryY=0.5;entryDx=0;entryDy=0;strokeWidth=2;" parent="1" source="PUA4zZ7eV-MUCZfb3W8y-65" target="_sJ0eMZxYpjguLuUmN_6-6" edge="1">
          <mxGeometry relative="1" as="geometry" />
        </mxCell>
        <mxCell id="_sJ0eMZxYpjguLuUmN_6-15" style="edgeStyle=orthogonalEdgeStyle;rounded=0;orthogonalLoop=1;jettySize=auto;html=1;exitX=0.5;exitY=1;exitDx=0;exitDy=0;entryX=0;entryY=0.5;entryDx=0;entryDy=0;strokeWidth=2;" parent="1" source="PUA4zZ7eV-MUCZfb3W8y-65" target="_sJ0eMZxYpjguLuUmN_6-14" edge="1">
          <mxGeometry relative="1" as="geometry" />
        </mxCell>
<<<<<<< Updated upstream
        <mxCell id="PUA4zZ7eV-MUCZfb3W8y-65" value="5.3&lt;div&gt;Menus&lt;/div&gt;" style="rounded=0;whiteSpace=wrap;html=1;sketch=1;curveFitting=1;jiggle=2;fillColor=#A9C4EB;fontStyle=0;fontSize=15;" parent="1" vertex="1">
          <mxGeometry x="870" y="825" width="120" height="60" as="geometry" />
        </mxCell>
        <mxCell id="PUA4zZ7eV-MUCZfb3W8y-66" value="5.4&lt;div&gt;Settings&lt;/div&gt;" style="rounded=0;whiteSpace=wrap;html=1;sketch=1;curveFitting=1;jiggle=2;fillColor=#A9C4EB;fontStyle=0;fontSize=15;" parent="1" vertex="1">
          <mxGeometry x="870" y="1190" width="120" height="60" as="geometry" />
        </mxCell>
        <mxCell id="PUA4zZ7eV-MUCZfb3W8y-67" value="5.7&lt;div&gt;Steam Achievements&lt;/div&gt;" style="rounded=0;whiteSpace=wrap;html=1;sketch=1;curveFitting=1;jiggle=2;fillColor=#A9C4EB;fontStyle=0;fontSize=15;" parent="1" vertex="1">
          <mxGeometry x="870" y="1460" width="120" height="60" as="geometry" />
        </mxCell>
        <mxCell id="PUA4zZ7eV-MUCZfb3W8y-69" value="5.5&lt;div&gt;Saving&lt;/div&gt;" style="rounded=0;whiteSpace=wrap;html=1;sketch=1;curveFitting=1;jiggle=2;fillColor=#B9E0A5;fontStyle=0;fontSize=15;" parent="1" vertex="1">
          <mxGeometry x="870" y="1280" width="120" height="60" as="geometry" />
        </mxCell>
        <mxCell id="PUA4zZ7eV-MUCZfb3W8y-70" value="5.6&lt;div&gt;Loading&lt;/div&gt;" style="rounded=0;whiteSpace=wrap;html=1;sketch=1;curveFitting=1;jiggle=2;fillColor=#B9E0A5;fontStyle=0;fontSize=15;" parent="1" vertex="1">
          <mxGeometry x="870" y="1370" width="120" height="60" as="geometry" />
        </mxCell>
        <mxCell id="PUA4zZ7eV-MUCZfb3W8y-72" value="4.8&lt;div&gt;Reputation Score&lt;/div&gt;" style="rounded=0;whiteSpace=wrap;html=1;sketch=1;curveFitting=1;jiggle=2;fillColor=#A9C4EB;fontStyle=0;fontSize=15;" parent="1" vertex="1">
          <mxGeometry x="630" y="1280" width="120" height="60" as="geometry" />
        </mxCell>
        <mxCell id="PUA4zZ7eV-MUCZfb3W8y-73" value="1.7.1&lt;div&gt;Cherry Model&lt;/div&gt;" style="rounded=0;whiteSpace=wrap;html=1;sketch=1;curveFitting=1;jiggle=2;fillColor=#F19C99;fontStyle=0;fontSize=15;" parent="1" vertex="1">
          <mxGeometry x="-10" y="1460" width="120" height="60" as="geometry" />
        </mxCell>
        <mxCell id="PUA4zZ7eV-MUCZfb3W8y-74" value="1.7.2&lt;div&gt;Armed Nylon Model&lt;/div&gt;" style="rounded=0;whiteSpace=wrap;html=1;sketch=1;curveFitting=1;jiggle=2;fillColor=#F19C99;fontStyle=0;fontSize=15;" parent="1" vertex="1">
          <mxGeometry x="-10" y="1550" width="120" height="60" as="geometry" />
        </mxCell>
        <mxCell id="PUA4zZ7eV-MUCZfb3W8y-75" value="1.7.3&lt;div&gt;Anomalocaris Model&lt;/div&gt;" style="rounded=0;whiteSpace=wrap;html=1;sketch=1;curveFitting=1;jiggle=2;fillColor=#F19C99;fontStyle=0;fontSize=15;" parent="1" vertex="1">
          <mxGeometry x="-10" y="1640" width="120" height="60" as="geometry" />
        </mxCell>
        <mxCell id="PUA4zZ7eV-MUCZfb3W8y-76" value="1.7.4&lt;div&gt;Anomalocaridid Model&lt;/div&gt;" style="rounded=0;whiteSpace=wrap;html=1;sketch=1;curveFitting=1;jiggle=2;fillColor=#F19C99;fontStyle=0;fontSize=15;" parent="1" vertex="1">
          <mxGeometry x="-10" y="1730" width="120" height="60" as="geometry" />
        </mxCell>
        <mxCell id="PUA4zZ7eV-MUCZfb3W8y-77" value="3.6&lt;div&gt;Unique Buyers&lt;/div&gt;" style="rounded=0;whiteSpace=wrap;html=1;sketch=1;curveFitting=1;jiggle=2;fillColor=#A9C4EB;fontStyle=0;fontSize=15;" parent="1" vertex="1">
          <mxGeometry x="400" y="1100" width="120" height="60" as="geometry" />
        </mxCell>
        <mxCell id="PUA4zZ7eV-MUCZfb3W8y-78" value="1.11&lt;div&gt;Shrimp Optimisation&lt;/div&gt;" style="rounded=0;whiteSpace=wrap;html=1;sketch=1;curveFitting=1;jiggle=2;fillColor=#B9E0A5;fontStyle=0;fontSize=15;" parent="1" vertex="1">
          <mxGeometry x="-90" y="2090" width="120" height="60" as="geometry" />
        </mxCell>
        <mxCell id="PUA4zZ7eV-MUCZfb3W8y-79" value="3.5&lt;div&gt;Vet Services&lt;/div&gt;" style="rounded=0;whiteSpace=wrap;html=1;sketch=1;curveFitting=1;jiggle=2;fillColor=#A9C4EB;fontStyle=0;fontSize=15;" parent="1" vertex="1">
          <mxGeometry x="400" y="1010" width="120" height="60" as="geometry" />
        </mxCell>
        <mxCell id="PUA4zZ7eV-MUCZfb3W8y-80" value="6.7.1&lt;div&gt;Invites&lt;/div&gt;" style="rounded=0;whiteSpace=wrap;html=1;sketch=1;curveFitting=1;jiggle=2;fillColor=#E6E6E6;fontStyle=0;fontSize=15;" parent="1" vertex="1">
          <mxGeometry x="1204" y="1270" width="120" height="60" as="geometry" />
        </mxCell>
        <mxCell id="PUA4zZ7eV-MUCZfb3W8y-81" value="6.7.2&lt;div&gt;Survey&lt;/div&gt;" style="rounded=0;whiteSpace=wrap;html=1;sketch=1;curveFitting=1;jiggle=2;fillColor=#A9C4EB;fontStyle=0;fontSize=15;" parent="1" vertex="1">
          <mxGeometry x="1204" y="1360" width="120" height="60" as="geometry" />
        </mxCell>
        <mxCell id="PUA4zZ7eV-MUCZfb3W8y-82" value="6.7.3&lt;div&gt;Data Tracking&lt;/div&gt;" style="rounded=0;whiteSpace=wrap;html=1;sketch=1;curveFitting=1;jiggle=2;fillColor=#B9E0A5;fontStyle=0;fontSize=15;" parent="1" vertex="1">
          <mxGeometry x="1204" y="1450" width="120" height="60" as="geometry" />
        </mxCell>
        <mxCell id="PUA4zZ7eV-MUCZfb3W8y-83" value="5.2&lt;div&gt;Notification System&lt;/div&gt;" style="rounded=0;whiteSpace=wrap;html=1;sketch=1;curveFitting=1;jiggle=2;fillColor=#B9E0A5;fontStyle=0;fontSize=15;" parent="1" vertex="1">
          <mxGeometry x="870" y="730" width="120" height="60" as="geometry" />
        </mxCell>
        <mxCell id="PUA4zZ7eV-MUCZfb3W8y-100" value="1.9&lt;div&gt;Shrimp Patterns&lt;/div&gt;" style="rounded=0;whiteSpace=wrap;html=1;sketch=1;curveFitting=1;jiggle=2;fillColor=#F19C99;fontStyle=0;fontSize=15;" parent="1" vertex="1">
=======
        <mxCell id="PUA4zZ7eV-MUCZfb3W8y-65" value="1.5.3&lt;div&gt;Menus&lt;/div&gt;" style="rounded=0;whiteSpace=wrap;html=1;sketch=1;curveFitting=1;jiggle=2;fillColor=#A9C4EB;fontStyle=0;fontSize=15;" parent="1" vertex="1">
          <mxGeometry x="870" y="825" width="120" height="60" as="geometry" />
        </mxCell>
        <mxCell id="PUA4zZ7eV-MUCZfb3W8y-66" value="1.5.4&lt;div&gt;Settings&lt;/div&gt;" style="rounded=0;whiteSpace=wrap;html=1;sketch=1;curveFitting=1;jiggle=2;fillColor=#A9C4EB;fontStyle=0;fontSize=15;" parent="1" vertex="1">
          <mxGeometry x="870" y="1190" width="120" height="60" as="geometry" />
        </mxCell>
        <mxCell id="PUA4zZ7eV-MUCZfb3W8y-67" value="1.5.7&lt;div&gt;Steam Achievements&lt;/div&gt;" style="rounded=0;whiteSpace=wrap;html=1;sketch=1;curveFitting=1;jiggle=2;fillColor=#A9C4EB;fontStyle=0;fontSize=15;" parent="1" vertex="1">
          <mxGeometry x="870" y="1460" width="120" height="60" as="geometry" />
        </mxCell>
        <mxCell id="PUA4zZ7eV-MUCZfb3W8y-69" value="1.5.5&lt;div&gt;Saving&lt;/div&gt;" style="rounded=0;whiteSpace=wrap;html=1;sketch=1;curveFitting=1;jiggle=2;fillColor=#B9E0A5;fontStyle=0;fontSize=15;" parent="1" vertex="1">
          <mxGeometry x="870" y="1280" width="120" height="60" as="geometry" />
        </mxCell>
        <mxCell id="PUA4zZ7eV-MUCZfb3W8y-70" value="1.5.6&lt;div&gt;Loading&lt;/div&gt;" style="rounded=0;whiteSpace=wrap;html=1;sketch=1;curveFitting=1;jiggle=2;fillColor=#B9E0A5;fontStyle=0;fontSize=15;" parent="1" vertex="1">
          <mxGeometry x="870" y="1370" width="120" height="60" as="geometry" />
        </mxCell>
        <mxCell id="PUA4zZ7eV-MUCZfb3W8y-72" value="1.4.8&lt;div&gt;Reputation Score&lt;/div&gt;" style="rounded=0;whiteSpace=wrap;html=1;sketch=1;curveFitting=1;jiggle=2;fillColor=#A9C4EB;fontStyle=0;fontSize=15;" parent="1" vertex="1">
          <mxGeometry x="630" y="1280" width="120" height="60" as="geometry" />
        </mxCell>
        <mxCell id="PUA4zZ7eV-MUCZfb3W8y-73" value="1.1.7.1&lt;div&gt;Cherry Model&lt;/div&gt;" style="rounded=0;whiteSpace=wrap;html=1;sketch=1;curveFitting=1;jiggle=2;fillColor=#F19C99;fontStyle=0;fontSize=15;" parent="1" vertex="1">
          <mxGeometry x="-10" y="1460" width="120" height="60" as="geometry" />
        </mxCell>
        <mxCell id="PUA4zZ7eV-MUCZfb3W8y-74" value="1.1.7.2&lt;div&gt;Armed Nylon Model&lt;/div&gt;" style="rounded=0;whiteSpace=wrap;html=1;sketch=1;curveFitting=1;jiggle=2;fillColor=#F19C99;fontStyle=0;fontSize=15;" parent="1" vertex="1">
          <mxGeometry x="-10" y="1550" width="120" height="60" as="geometry" />
        </mxCell>
        <mxCell id="PUA4zZ7eV-MUCZfb3W8y-75" value="1.1.7.3&lt;div&gt;Anomalocaris Model&lt;/div&gt;" style="rounded=0;whiteSpace=wrap;html=1;sketch=1;curveFitting=1;jiggle=2;fillColor=#F19C99;fontStyle=0;fontSize=15;" parent="1" vertex="1">
          <mxGeometry x="-10" y="1640" width="120" height="60" as="geometry" />
        </mxCell>
        <mxCell id="PUA4zZ7eV-MUCZfb3W8y-76" value="1.1.7.4&lt;div&gt;Anomalocaridid Model&lt;/div&gt;" style="rounded=0;whiteSpace=wrap;html=1;sketch=1;curveFitting=1;jiggle=2;fillColor=#F19C99;fontStyle=0;fontSize=15;" parent="1" vertex="1">
          <mxGeometry x="-10" y="1730" width="120" height="60" as="geometry" />
        </mxCell>
        <mxCell id="PUA4zZ7eV-MUCZfb3W8y-77" value="1.3.6&lt;div&gt;Unique Buyers&lt;/div&gt;" style="rounded=0;whiteSpace=wrap;html=1;sketch=1;curveFitting=1;jiggle=2;fillColor=#A9C4EB;fontStyle=0;fontSize=15;" parent="1" vertex="1">
          <mxGeometry x="400" y="1100" width="120" height="60" as="geometry" />
        </mxCell>
        <mxCell id="PUA4zZ7eV-MUCZfb3W8y-78" value="1.1.11&lt;div&gt;Shrimp Optimisation&lt;/div&gt;" style="rounded=0;whiteSpace=wrap;html=1;sketch=1;curveFitting=1;jiggle=2;fillColor=#B9E0A5;fontStyle=0;fontSize=15;" parent="1" vertex="1">
          <mxGeometry x="-90" y="2090" width="120" height="60" as="geometry" />
        </mxCell>
        <mxCell id="PUA4zZ7eV-MUCZfb3W8y-79" value="1.3.5&lt;div&gt;Vet Services&lt;/div&gt;" style="rounded=0;whiteSpace=wrap;html=1;sketch=1;curveFitting=1;jiggle=2;fillColor=#A9C4EB;fontStyle=0;fontSize=15;" parent="1" vertex="1">
          <mxGeometry x="400" y="1010" width="120" height="60" as="geometry" />
        </mxCell>
        <mxCell id="PUA4zZ7eV-MUCZfb3W8y-80" value="1.6.7.1&lt;div&gt;Invites&lt;/div&gt;" style="rounded=0;whiteSpace=wrap;html=1;sketch=1;curveFitting=1;jiggle=2;fillColor=#E6E6E6;fontStyle=0;fontSize=15;" parent="1" vertex="1">
          <mxGeometry x="1204" y="1270" width="120" height="60" as="geometry" />
        </mxCell>
        <mxCell id="PUA4zZ7eV-MUCZfb3W8y-81" value="1.6.7.2&lt;div&gt;Survey&lt;/div&gt;" style="rounded=0;whiteSpace=wrap;html=1;sketch=1;curveFitting=1;jiggle=2;fillColor=#A9C4EB;fontStyle=0;fontSize=15;" parent="1" vertex="1">
          <mxGeometry x="1204" y="1360" width="120" height="60" as="geometry" />
        </mxCell>
        <mxCell id="PUA4zZ7eV-MUCZfb3W8y-82" value="1.6.7.3&lt;div&gt;Data Tracking&lt;/div&gt;" style="rounded=0;whiteSpace=wrap;html=1;sketch=1;curveFitting=1;jiggle=2;fillColor=#B9E0A5;fontStyle=0;fontSize=15;" parent="1" vertex="1">
          <mxGeometry x="1204" y="1450" width="120" height="60" as="geometry" />
        </mxCell>
        <mxCell id="PUA4zZ7eV-MUCZfb3W8y-83" value="1.5.2&lt;div&gt;Notification System&lt;/div&gt;" style="rounded=0;whiteSpace=wrap;html=1;sketch=1;curveFitting=1;jiggle=2;fillColor=#B9E0A5;fontStyle=0;fontSize=15;" parent="1" vertex="1">
          <mxGeometry x="870" y="730" width="120" height="60" as="geometry" />
        </mxCell>
        <mxCell id="PUA4zZ7eV-MUCZfb3W8y-100" value="1.1.9&lt;div&gt;Shrimp Patterns&lt;/div&gt;" style="rounded=0;whiteSpace=wrap;html=1;sketch=1;curveFitting=1;jiggle=2;fillColor=#F19C99;fontStyle=0;fontSize=15;" parent="1" vertex="1">
>>>>>>> Stashed changes
          <mxGeometry x="-90" y="1910" width="120" height="60" as="geometry" />
        </mxCell>
        <mxCell id="PUA4zZ7eV-MUCZfb3W8y-137" value="Everyone" style="rounded=0;whiteSpace=wrap;html=1;sketch=1;curveFitting=1;jiggle=2;fillColor=#E6E6E6;fontStyle=0;fontSize=18;" parent="1" vertex="1">
          <mxGeometry x="-137" y="251.5" width="157" height="78.5" as="geometry" />
        </mxCell>
        <mxCell id="PUA4zZ7eV-MUCZfb3W8y-138" value="Programming&lt;div&gt;(Aaron)&lt;/div&gt;" style="rounded=0;whiteSpace=wrap;html=1;sketch=1;curveFitting=1;jiggle=2;fillColor=#B9E0A5;fontStyle=0;fontSize=18;" parent="1" vertex="1">
          <mxGeometry x="40" y="252" width="156" height="78" as="geometry" />
        </mxCell>
        <mxCell id="PUA4zZ7eV-MUCZfb3W8y-139" value="Design&lt;div&gt;(Kester)&lt;/div&gt;" style="rounded=0;whiteSpace=wrap;html=1;sketch=1;curveFitting=1;jiggle=2;fillColor=#A9C4EB;fontStyle=0;fontSize=18;" parent="1" vertex="1">
          <mxGeometry x="-138" y="350" width="158" height="79" as="geometry" />
        </mxCell>
        <mxCell id="PUA4zZ7eV-MUCZfb3W8y-140" value="Art&lt;div&gt;(Ronja)&lt;/div&gt;" style="rounded=0;whiteSpace=wrap;html=1;sketch=1;curveFitting=1;jiggle=2;fillColor=#F19C99;fontStyle=0;fontSize=18;" parent="1" vertex="1">
          <mxGeometry x="40" y="350" width="156" height="78" as="geometry" />
        </mxCell>
<<<<<<< Updated upstream
        <mxCell id="_sJ0eMZxYpjguLuUmN_6-2" value="5.3.1&lt;div&gt;Main Menu&lt;/div&gt;" style="rounded=0;whiteSpace=wrap;html=1;sketch=1;curveFitting=1;jiggle=2;fillColor=#A9C4EB;fontStyle=0;fontSize=15;" parent="1" vertex="1">
          <mxGeometry x="950" y="920" width="120" height="60" as="geometry" />
        </mxCell>
        <mxCell id="_sJ0eMZxYpjguLuUmN_6-6" value="5.3.2&lt;div&gt;Shrimp Menu&lt;/div&gt;" style="rounded=0;whiteSpace=wrap;html=1;sketch=1;curveFitting=1;jiggle=2;fillColor=#A9C4EB;fontStyle=0;fontSize=15;" parent="1" vertex="1">
          <mxGeometry x="950" y="1010" width="120" height="60" as="geometry" />
        </mxCell>
        <mxCell id="_sJ0eMZxYpjguLuUmN_6-14" value="5.3.3&lt;div&gt;Tablet Menu&lt;/div&gt;" style="rounded=0;whiteSpace=wrap;html=1;sketch=1;curveFitting=1;jiggle=2;fillColor=#A9C4EB;fontStyle=0;fontSize=15;" parent="1" vertex="1">
=======
        <mxCell id="_sJ0eMZxYpjguLuUmN_6-2" value="1.5.3.1&lt;div&gt;Main Menu&lt;/div&gt;" style="rounded=0;whiteSpace=wrap;html=1;sketch=1;curveFitting=1;jiggle=2;fillColor=#A9C4EB;fontStyle=0;fontSize=15;" parent="1" vertex="1">
          <mxGeometry x="950" y="920" width="120" height="60" as="geometry" />
        </mxCell>
        <mxCell id="_sJ0eMZxYpjguLuUmN_6-6" value="1.5.3.2&lt;div&gt;Shrimp Menu&lt;/div&gt;" style="rounded=0;whiteSpace=wrap;html=1;sketch=1;curveFitting=1;jiggle=2;fillColor=#A9C4EB;fontStyle=0;fontSize=15;" parent="1" vertex="1">
          <mxGeometry x="950" y="1010" width="120" height="60" as="geometry" />
        </mxCell>
        <mxCell id="_sJ0eMZxYpjguLuUmN_6-14" value="1.5.3.3&lt;div&gt;Tablet Menu&lt;/div&gt;" style="rounded=0;whiteSpace=wrap;html=1;sketch=1;curveFitting=1;jiggle=2;fillColor=#A9C4EB;fontStyle=0;fontSize=15;" parent="1" vertex="1">
>>>>>>> Stashed changes
          <mxGeometry x="950" y="1100" width="120" height="60" as="geometry" />
        </mxCell>
      </root>
    </mxGraphModel>
  </diagram>
</mxfile>
